<?xml version="1.0" standalone="no"?>
<!DOCTYPE svg PUBLIC "-//W3C//DTD SVG 20010904//EN"
 "http://www.w3.org/TR/2001/REC-SVG-20010904/DTD/svg10.dtd">
<svg version="1.0" xmlns="http://www.w3.org/2000/svg"
 width="1280.000000pt" height="1111.000000pt" viewBox="0 0 1280.000000 1111.000000"
 preserveAspectRatio="xMidYMid meet">
<metadata>
Created by potrace 1.15, written by Peter Selinger 2001-2017
</metadata>
<g transform="translate(0.000000,1111.000000) scale(0.100000,-0.100000)"
fill="#ffffff" stroke="none">
<path d="M1 11078 c0 -28 2 -30 9 -13 12 28 12 45 0 45 -5 0 -10 -15 -9 -32z"/>
<path d="M7135 10393 c-16 -2 -92 -10 -168 -19 -162 -17 -429 -81 -525 -125
-72 -32 -235 -126 -292 -168 -171 -126 -397 -354 -481 -486 -14 -22 -33 -46
-43 -54 -10 -8 -31 -42 -48 -75 -17 -34 -36 -64 -42 -68 -22 -12 -141 -280
-182 -408 -15 -47 -33 -98 -40 -115 -67 -152 -127 -405 -144 -611 -35 -431 2
-925 90 -1206 11 -35 20 -71 20 -80 0 -30 134 -440 170 -523 10 -22 39 -89 65
-150 26 -60 65 -148 87 -195 22 -47 55 -119 73 -160 107 -249 342 -725 419
-850 149 -243 204 -306 302 -351 70 -32 217 -57 462 -79 64 -6 130 -12 147
-15 502 -70 1705 -83 1915 -19 25 8 72 14 105 14 99 0 383 62 580 126 107 35
300 125 387 180 24 15 72 43 108 62 70 36 141 81 284 180 50 34 122 83 160
108 81 54 246 211 355 338 76 89 213 280 292 409 43 70 118 254 149 367 58
211 93 560 72 720 -17 124 -71 307 -136 457 -31 73 -56 135 -56 139 0 16 -107
192 -162 266 -66 89 -210 236 -297 302 -120 91 -314 196 -453 245 -49 17 -145
40 -215 51 -71 11 -153 24 -183 30 -112 20 -239 30 -388 30 -174 0 -353 22
-424 52 -26 11 -63 38 -83 59 -42 47 -152 271 -237 484 -72 181 -176 358 -278
472 -41 46 -94 107 -116 136 -132 164 -258 265 -515 410 -117 66 -354 116
-573 121 -72 1 -144 1 -161 -1z"/>
<path d="M3545 6238 c-95 -23 -234 -73 -280 -101 -142 -86 -199 -130 -291
-222 -119 -120 -215 -254 -279 -390 -7 -16 -41 -88 -74 -160 -73 -159 -111
-206 -189 -235 -55 -22 -61 -22 -210 -10 -263 21 -332 18 -441 -19 -52 -17
-115 -42 -140 -55 -25 -13 -70 -35 -100 -50 -56 -29 -188 -128 -272 -204 -43
-40 -147 -185 -234 -329 -44 -72 -105 -242 -105 -293 0 -19 -5 -55 -11 -80
-30 -124 9 -388 82 -561 59 -140 109 -239 154 -303 57 -81 326 -341 425 -410
72 -51 95 -64 280 -156 47 -24 92 -47 100 -51 25 -13 171 -66 240 -87 164 -51
396 -89 660 -108 36 -3 158 -12 271 -20 337 -25 917 -17 1021 15 82 26 133 91
256 331 87 170 109 211 158 295 13 22 34 70 48 106 23 62 45 106 109 219 14
25 39 86 56 135 16 50 42 119 57 155 60 145 139 475 159 665 2 17 8 64 13 105
46 332 0 722 -112 952 -65 134 -196 349 -263 431 -200 244 -489 411 -762 437
-119 12 -273 11 -326 -2z"/>
<path d="M7795 3560 c-162 -10 -300 -60 -493 -177 -67 -41 -216 -202 -336
-363 -92 -124 -189 -361 -216 -525 -7 -38 -18 -97 -25 -130 -14 -61 -34 -232
-40 -340 -2 -33 -6 -80 -9 -105 -3 -25 -8 -89 -11 -143 -3 -55 -12 -142 -20
-195 -26 -173 -19 -223 45 -296 18 -20 67 -58 109 -82 42 -25 110 -67 151 -94
41 -27 126 -79 187 -115 62 -37 116 -71 119 -77 11 -17 336 -173 399 -191 33
-10 89 -26 125 -37 328 -101 594 -127 820 -80 155 32 199 51 322 137 172 120
335 343 405 553 58 172 28 412 -70 574 -50 82 -103 151 -130 169 -14 9 -56 44
-94 77 -37 34 -113 91 -168 128 -118 78 -190 143 -215 192 -27 53 -43 177 -38
287 12 223 -37 394 -163 563 -70 94 -145 157 -246 206 -133 64 -215 77 -408
64z"/>
</g>
</svg>
