<?xml version="1.0" standalone="no"?>
<!DOCTYPE svg PUBLIC "-//W3C//DTD SVG 20010904//EN"
 "http://www.w3.org/TR/2001/REC-SVG-20010904/DTD/svg10.dtd">
<svg version="1.0" xmlns="http://www.w3.org/2000/svg"
 width="1280.000000pt" height="1037.000000pt" viewBox="0 0 1280.000000 1037.000000"
 preserveAspectRatio="xMidYMid meet">
<metadata>
Created by potrace 1.15, written by Peter Selinger 2001-2017
</metadata>
<g transform="translate(0.000000,1037.000000) scale(0.100000,-0.100000)"
fill="#f44336" stroke="none">
<path d="M3828 9870 c-975 -77 -1901 -577 -2468 -1335 -324 -432 -514 -924
-586 -1516 -20 -164 -22 -499 -5 -659 62 -567 285 -1105 670 -1615 145 -192
277 -342 491 -555 325 -326 626 -580 1141 -964 341 -254 323 -241 739 -536
1075 -762 1444 -1053 1856 -1464 212 -212 341 -359 468 -536 122 -168 158
-195 266 -194 109 1 146 28 261 189 101 143 251 317 414 484 389 398 786 717
1690 1361 1152 821 1446 1047 1899 1459 982 896 1427 1812 1375 2833 -26 518
-177 1039 -420 1445 -509 852 -1431 1443 -2472 1585 -184 25 -591 30 -752 9
-812 -104 -1427 -475 -1852 -1116 -33 -49 -77 -123 -99 -162 -21 -40 -41 -73
-44 -73 -3 1 -40 60 -83 133 -171 292 -384 533 -642 726 -345 258 -769 425
-1229 485 -145 19 -472 28 -618 16z m652 -125 c385 -61 715 -182 1005 -370
285 -185 540 -448 720 -744 50 -82 173 -320 187 -361 3 -9 28 31 58 95 212
438 476 751 835 989 306 203 646 332 1035 391 144 22 511 31 680 16 570 -50
1124 -248 1600 -572 523 -356 915 -837 1127 -1385 90 -229 151 -478 195 -789
20 -139 17 -581 -5 -730 -53 -356 -169 -702 -343 -1019 -347 -631 -923 -1223
-1899 -1951 -241 -179 -345 -254 -950 -685 -898 -639 -1285 -949 -1676 -1339
-201 -202 -356 -380 -474 -546 -87 -124 -113 -145 -174 -145 -27 0 -56 7 -70
16 -13 9 -62 69 -109 133 -300 406 -682 778 -1272 1237 -262 204 -416 316
-1065 779 -1096 781 -1492 1098 -1935 1551 -639 653 -967 1265 -1072 1999 -17
120 -17 567 0 705 19 152 77 434 118 568 219 724 722 1336 1429 1743 374 214
848 373 1255 418 52 6 111 13 130 15 92 10 570 -3 670 -19z"/>
<path d="M3870 9494 c-19 -2 -78 -9 -130 -15 -671 -76 -1349 -405 -1830 -889
-379 -380 -615 -826 -720 -1360 -163 -825 14 -1547 556 -2266 236 -314 592
-670 1034 -1035 287 -236 624 -488 1260 -939 781 -554 1173 -850 1515 -1145
267 -231 563 -528 738 -742 55 -68 103 -123 108 -123 4 0 29 28 56 63 66 86
177 211 302 342 415 432 867 798 1811 1470 719 512 1031 741 1305 958 447 356
793 682 1050 992 656 789 865 1556 674 2473 -169 815 -702 1481 -1509 1888
-599 301 -1264 403 -1861 284 -605 -121 -1102 -465 -1407 -976 -29 -49 -83
-138 -119 -199 -98 -164 -187 -355 -243 -521 -27 -82 -50 -157 -50 -166 0 -40
-16 -13 -37 61 -50 179 -155 423 -243 566 -24 39 -65 109 -91 157 -224 408
-538 708 -941 903 -207 100 -405 159 -665 200 -93 15 -486 28 -563 19z m514
-120 c395 -49 734 -186 1033 -417 51 -40 92 -75 93 -79 0 -4 -28 10 -62 33
-156 101 -434 212 -648 259 -537 119 -1134 55 -1690 -182 -405 -173 -792 -457
-1067 -783 -601 -713 -776 -1761 -437 -2615 189 -476 522 -923 1044 -1404 41
-39 64 -62 50 -53 -13 9 -101 86 -195 171 -598 542 -975 1066 -1150 1602 -93
285 -136 620 -115 902 39 521 171 935 420 1311 110 167 186 258 339 412 433
432 1018 727 1646 829 247 41 488 45 739 14z m4671 0 c632 -78 1246 -367 1708
-804 373 -354 633 -821 736 -1325 118 -576 72 -1074 -145 -1573 -193 -445
-543 -899 -1044 -1353 -103 -94 -199 -178 -211 -186 -30 -20 -29 -19 130 128
407 375 731 805 913 1211 152 338 218 648 218 1026 0 619 -175 1149 -539 1627
-89 118 -320 353 -441 449 -415 330 -912 546 -1445 628 -169 26 -551 31 -700
10 -327 -46 -630 -147 -857 -285 -42 -26 -80 -47 -84 -47 -4 0 31 30 77 67
453 358 1039 507 1684 427z"/>
</g>
</svg>
